<svg width="69" height="56" viewBox="0 0 69 56" fill="none" xmlns="http://www.w3.org/2000/svg">
<g clip-path="url(#clip0_0_8)">
<path d="M39.1605 16.87L37.8643 15.87C37.6617 15.7043 37.4026 15.626 37.1432 15.6522C36.8838 15.6784 36.6451 15.807 36.479 16.01L18.5396 36.83L18.8166 37.14L23.2594 33C23.1114 32.9398 22.9888 32.8291 22.9132 32.6871C22.8375 32.5451 22.8135 32.3807 22.8452 32.2227C22.877 32.0646 22.9625 31.9227 23.087 31.8218C23.2115 31.7208 23.367 31.6671 23.5266 31.67C23.6705 31.67 23.8106 31.7166 23.9264 31.803C24.0421 31.8894 24.1274 32.011 24.1698 32.15L30.0275 26.66C30.1172 26.587 30.229 26.5472 30.3442 26.5472C30.4594 26.5472 30.5711 26.587 30.6608 26.66L30.9577 26.88C31.0581 26.9528 31.1818 26.9849 31.3045 26.9701C31.4272 26.9553 31.54 26.8946 31.6206 26.8L39.2793 18.12C39.3607 18.0339 39.4228 17.931 39.4613 17.8184C39.4999 17.7058 39.514 17.5862 39.5028 17.4676C39.4915 17.349 39.4551 17.2343 39.396 17.1312C39.337 17.028 39.2567 16.939 39.1605 16.87Z" fill="#303030"/>
<path d="M47.591 22.73C43.6652 25.553 39.2673 27.6364 34.6089 28.88C29.9855 30.0683 25.2545 30.7786 20.4889 31C20.5848 31.7102 20.7574 32.4077 21.0034 33.08C23.6948 35.54 43.9596 31.34 47.9176 26.48C48.7586 25.47 47.591 22.73 47.591 22.73ZM23.5266 33C23.3935 33 23.2635 32.9601 23.1528 32.8854C23.0422 32.8107 22.9559 32.7045 22.905 32.5802C22.8541 32.4559 22.8407 32.3192 22.8667 32.1873C22.8927 32.0554 22.9567 31.9342 23.0508 31.8391C23.1449 31.744 23.2648 31.6793 23.3954 31.653C23.5259 31.6268 23.6612 31.6403 23.7841 31.6917C23.9071 31.7432 24.0122 31.8304 24.0861 31.9422C24.16 32.054 24.1995 32.1855 24.1995 32.32C24.2008 32.4097 24.1843 32.4987 24.151 32.5818C24.1176 32.6649 24.0681 32.7404 24.0054 32.8038C23.9426 32.8672 23.8679 32.9173 23.7857 32.951C23.7035 32.9847 23.6154 33.0013 23.5266 33Z" fill="#303030"/>
<path d="M4.38012 21.2899L4.53843 20.5999L7.11111 21.1899C7.32336 21.5861 7.45459 22.0214 7.49701 22.4699C7.54612 22.945 7.51602 23.425 7.40796 23.8899C7.27987 24.5352 6.98644 25.1352 6.55699 25.6299C6.14842 26.097 5.6216 26.4428 5.03318 26.6299C4.42671 26.8189 3.78168 26.8431 3.16304 26.6999C2.54305 26.5646 1.97156 26.2603 1.51059 25.8199C1.05668 25.3969 0.73074 24.8526 0.570576 24.2499C0.392897 23.5954 0.392897 22.9045 0.570576 22.2499C0.676924 21.76 0.867845 21.2929 1.13459 20.8699C1.38704 20.4853 1.72615 20.1665 2.12408 19.9399L2.48029 20.4899C2.13922 20.7016 1.84645 20.9839 1.6213 21.3183C1.39615 21.6527 1.24375 22.0316 1.17417 22.4299C1.05146 22.9473 1.06167 23.4877 1.20385 23.9999C1.33681 24.4863 1.60054 24.9259 1.96576 25.2699C2.34115 25.6367 2.81081 25.8896 3.32136 25.9999C3.81643 26.1404 4.34021 26.1404 4.83528 25.9999C5.30953 25.8417 5.73549 25.5628 6.07214 25.1899C6.41811 24.7873 6.65654 24.3019 6.76479 23.7799C6.92759 23.1468 6.88599 22.4776 6.64605 21.8699L4.38012 21.2899Z" fill="#303030"/>
<path d="M9.98046 14.9999L7.67495 18.1099L8.66444 19.8999L8.20927 20.5199L4.54816 13.7699L4.97364 13.1799L12.4245 14.7999L11.9594 15.4199L9.98046 14.9999ZM9.3274 14.8399L5.36943 13.9399L7.34842 17.5299L9.3274 14.8399Z" fill="#303030"/>
<path d="M9.32739 8.5501L9.92109 8.1001L13.691 13.2001L16.798 10.8501L17.1741 11.3601L13.4833 14.1501L9.32739 8.5501Z" fill="#303030"/>
<path d="M15.5612 4.38008L16.2242 4.08008L18.8364 9.86008L22.3689 8.24008L22.6262 8.82008L18.4307 10.7501L15.5612 4.38008Z" fill="#303030"/>
<path d="M28.6027 6.68003L28.7511 7.31003L23.9817 8.44003L22.3986 1.62003L27.0294 0.530029L27.1679 1.15003L23.2099 2.08003L23.774 4.50003L27.257 3.67003L27.4054 4.29003L23.9125 5.11003L24.5062 7.64003L28.6027 6.68003Z" fill="#303030"/>
<path d="M35.4005 6.92997L33.748 4.72997C33.5635 4.74029 33.3785 4.74029 33.1939 4.72997L31.3337 4.78997L31.4029 7.00997H30.6707L30.4431 0.00996866L33.0752 -3.1339e-05C33.8193 -0.0694894 34.5635 0.132721 35.1729 0.569969C35.4297 0.778962 35.6362 1.04418 35.7767 1.3456C35.9173 1.64702 35.9882 1.97678 35.9843 2.30997C36.0131 2.80416 35.8849 3.29473 35.6182 3.70997C35.3338 4.10853 34.9321 4.40603 34.4703 4.55997L36.202 6.89997L35.4005 6.92997ZM34.7078 3.63997C34.8857 3.47531 35.0237 3.27154 35.1112 3.04439C35.1987 2.81725 35.2333 2.57281 35.2125 2.32997C35.2176 2.08584 35.1677 1.84374 35.0665 1.62198C34.9654 1.40022 34.8156 1.20461 34.6287 1.04997C34.1726 0.737448 33.6242 0.592707 33.0752 0.639969L31.1951 0.709969L31.3139 4.20997L33.1543 4.14997C33.7155 4.17096 34.2659 3.99026 34.7078 3.63997Z" fill="#303030"/>
<path d="M40.6349 5.07L40.2787 7.46L39.5563 7.35L39.9225 5L37.8742 0L38.646 0.12L40.3974 4.38L43.3659 0.85L44.0585 1L40.6349 5.07Z" fill="#303030"/>
<path d="M50.421 4.64993L51.2818 5.77993L50.9058 6.07993L50.045 4.91993L49.5008 6.22993L49.0852 6.04993L49.6393 4.73993L48.2144 4.92993V4.44993L49.6195 4.28993L48.7487 3.15993L49.1346 2.85993L49.8966 3.99993L50.4309 2.67993L50.8564 2.85993L50.3517 4.19993L51.7766 3.99993V4.48993L50.421 4.64993Z" fill="#303030"/>
<path d="M53.7258 12.7099C53.4922 12.3458 53.3464 11.9314 53.3004 11.4999L53.8842 11.2399C53.9279 11.6363 54.0562 12.0184 54.2602 12.3599C54.4812 12.7428 54.7696 13.0817 55.1111 13.3599C55.4638 13.7012 55.9139 13.9216 56.3975 13.9899C56.5722 14.0063 56.7482 13.9793 56.9103 13.9114C57.0724 13.8434 57.2156 13.7365 57.3276 13.5999C57.4096 13.5084 57.4722 13.4008 57.5114 13.2838C57.5505 13.1669 57.5654 13.043 57.5552 12.9199C57.5224 12.6762 57.4417 12.4416 57.3177 12.2299C57.1317 11.923 56.9303 11.6259 56.7141 11.3399C56.4507 10.9911 56.2126 10.6235 56.0017 10.2399C55.8405 9.95284 55.7521 9.6299 55.7444 9.29992C55.7437 8.92934 55.8815 8.57218 56.1303 8.29992C56.3459 8.03604 56.6305 7.83857 56.9516 7.72992C57.3104 7.62518 57.6911 7.62518 58.0499 7.72992C58.5122 7.88269 58.9395 8.12751 59.3066 8.44992C59.6112 8.70599 59.8807 9.00192 60.1081 9.32992C60.3182 9.63408 60.4755 9.97227 60.5731 10.3299L60.0091 10.6299C59.9107 10.2966 59.764 9.97979 59.5737 9.68992C59.3842 9.43106 59.1612 9.199 58.9108 8.99992C58.5633 8.66016 58.1146 8.44575 57.6343 8.38992C57.4578 8.375 57.2804 8.40466 57.118 8.47623C56.9557 8.5478 56.8135 8.65903 56.7042 8.79992C56.62 8.89 56.5561 8.99741 56.5169 9.11477C56.4776 9.23214 56.4638 9.35669 56.4766 9.47992C56.4998 9.73209 56.5811 9.97526 56.7141 10.1899C56.8526 10.4199 57.0505 10.7199 57.3177 11.0799C57.5825 11.4207 57.8207 11.7818 58.0301 12.1599C58.1948 12.4461 58.2866 12.7691 58.2973 13.0999C58.298 13.4705 58.1601 13.8277 57.9114 14.0999C57.6949 14.3674 57.4061 14.5655 57.0802 14.6699C56.7221 14.7792 56.34 14.7792 55.9819 14.6699C55.5164 14.5176 55.0858 14.2728 54.7153 13.9499C54.3159 13.5986 53.9809 13.1788 53.7258 12.7099Z" fill="#303030"/>
<path d="M63.6801 14.17L62.285 12.17L62.7995 11.8L66.0153 16.44L65.5008 16.81L64.1056 14.81L58.9405 18.46L58.5249 17.85L63.6801 14.17Z" fill="#303030"/>
<path d="M61.4637 22.39C61.6403 21.7856 61.9835 21.2445 62.4532 20.83C62.9126 20.4141 63.4723 20.1279 64.076 20C64.6913 19.8572 65.3331 19.8814 65.9362 20.07C66.5184 20.2645 67.0402 20.6092 67.4501 21.07C67.8764 21.5656 68.1664 22.1656 68.2912 22.81C68.4551 23.4426 68.4551 24.1073 68.2912 24.74C68.1097 25.3421 67.7673 25.8819 67.3017 26.3C66.8296 26.727 66.2561 27.0233 65.6371 27.16C65.018 27.2967 64.3746 27.2691 63.7692 27.08C63.1826 26.8949 62.6585 26.5487 62.2553 26.08C61.831 25.587 61.5411 24.9907 61.4142 24.35C61.2631 23.7033 61.2801 23.028 61.4637 22.39ZM62.7599 25.57C63.0903 25.9502 63.5184 26.2306 63.9968 26.38C64.4899 26.5245 65.011 26.5417 65.5123 26.4298C66.0137 26.318 66.4792 26.0808 66.8663 25.74C67.2315 25.4004 67.5012 24.9691 67.648 24.49C67.786 23.9841 67.7995 23.4517 67.6874 22.9393C67.5753 22.4269 67.341 21.95 67.0048 21.55C66.66 21.1679 66.2187 20.8879 65.7284 20.74C65.2291 20.606 64.7039 20.606 64.2046 20.74C63.7008 20.8377 63.2344 21.0768 62.8589 21.43C62.4903 21.7708 62.2201 22.2062 62.0772 22.69C61.9428 23.1977 61.9428 23.7322 62.0772 24.24C62.1856 24.7361 62.421 25.1947 62.7599 25.57Z" fill="#303030"/>
<path d="M60.7117 33.9999L63.2745 32.9999C63.2745 32.8199 63.3338 32.6399 63.3833 32.4499L63.8682 30.6399L61.7704 30.0899L61.9584 29.3799L68.6474 31.1899L67.9745 33.7199C67.823 34.4581 67.416 35.1176 66.8267 35.5799C66.556 35.7699 66.2454 35.8941 65.9192 35.9427C65.5931 35.9912 65.2602 35.9629 64.9467 35.8599C64.4692 35.7552 64.0413 35.4891 63.7337 35.1055C63.4261 34.7219 63.2571 34.2437 63.2547 33.7499L60.5237 34.7499L60.7117 33.9999ZM64.0265 34.2799C64.1424 34.4924 64.2996 34.679 64.4887 34.8286C64.6779 34.9781 64.8949 35.0875 65.1269 35.1501C65.3589 35.2126 65.6011 35.2272 65.8387 35.1928C66.0764 35.1584 66.3048 35.0758 66.5101 34.9499C66.9468 34.5954 67.2449 34.0957 67.3512 33.5399L67.8261 31.7399L64.4718 30.8299L63.9968 32.6299C63.8142 33.1663 63.8248 33.7506 64.0265 34.2799Z" fill="#303030"/>
<path d="M57.1594 40.4401L56.6548 40.0501L59.6233 36.1001L65.1446 40.3301L62.2751 44.1601L61.7705 43.7701L64.1947 40.5401L62.2157 39.0301L60.0487 41.9201L59.554 41.5401L61.7705 38.6501L59.7222 37.0801L57.1594 40.4401Z" fill="#303030"/>
<path d="M54.844 48.4099L53.429 48.4899V48.0099L54.844 47.9999L54.0821 46.8099L54.468 46.5599L55.22 47.7599L55.8335 46.4199L56.259 46.6499L55.5861 47.9099L57.0011 47.8299V48.3199H55.5663L56.3282 49.5099L55.9423 49.7599L55.1903 48.5599L54.5372 49.8599L54.1217 49.6199L54.844 48.4099Z" fill="#303030"/>
<path d="M41.9806 47.6099L43.1779 48.2799C43.3786 47.8902 43.6587 47.5479 43.9999 47.2756C44.341 47.0033 44.7353 46.8071 45.1569 46.6999C45.5501 46.576 45.9637 46.5318 46.3739 46.5699C46.7299 46.5975 47.0718 46.7219 47.3634 46.9299C47.6271 47.1308 47.8211 47.4108 47.9175 47.7299C48.0368 48.1247 48.0158 48.5491 47.8582 48.9299C47.6099 49.4473 47.2751 49.9175 46.8687 50.3199C47.1949 50.4971 47.4975 50.7155 47.7691 50.9699C47.9557 51.1648 48.0946 51.4011 48.1748 51.6599C48.2255 51.8617 48.2287 52.0726 48.184 52.2759C48.1393 52.4791 48.048 52.6688 47.9175 52.8299C47.6534 53.2146 47.2593 53.4884 46.8093 53.5999C46.4142 53.7522 45.9775 53.7522 45.5823 53.5999C45.4066 53.5235 45.2509 53.407 45.1273 53.2596C45.0036 53.1121 44.9155 52.9376 44.8699 52.7499C44.7662 52.4198 44.7909 52.0622 44.9392 51.7499C45.1663 51.2953 45.4636 50.8801 45.8198 50.5199L43.4351 49.1799C43.3442 49.6508 43.3241 50.1329 43.3758 50.6099H42.7722C42.7315 50.0225 42.7986 49.4326 42.9701 48.8699L41.7233 48.1699L41.9806 47.6099ZM43.7023 48.6099L46.3245 50.0799C46.6681 49.7483 46.9526 49.3592 47.1655 48.9299C47.2742 48.64 47.2742 48.3199 47.1655 48.0299C47.1207 47.8567 47.0339 47.6974 46.9129 47.5665C46.792 47.4356 46.6408 47.3371 46.4729 47.2799C46.0621 47.1397 45.6171 47.1397 45.2063 47.2799C44.8707 47.3694 44.5585 47.5322 44.2918 47.7568C44.0251 47.9814 43.8104 48.2624 43.6627 48.5799L43.7023 48.6099ZM47.4228 52.6099C47.4874 52.4994 47.528 52.3762 47.5416 52.2486C47.5553 52.1209 47.5417 51.9918 47.502 51.8699C47.4413 51.6724 47.3324 51.4936 47.1853 51.3499C46.9334 51.1352 46.6579 50.9506 46.364 50.7999C46.064 51.0997 45.8015 51.4356 45.5823 51.7999C45.4627 52.0271 45.4344 52.2921 45.5032 52.5399C45.5346 52.6543 45.5896 52.7607 45.6646 52.8521C45.7397 52.9434 45.833 53.0177 45.9386 53.0699C46.1905 53.1659 46.4683 53.1659 46.7203 53.0699C46.9893 52.9974 47.2242 52.8309 47.3832 52.5999L47.4228 52.6099Z" fill="#303030"/>
<path d="M29.9187 55.3201L30.0572 48.3201H30.7598L30.6509 53.9201L33.4611 49.2601H33.8074L36.4394 54.0001L36.5384 48.4301H37.2409L37.1123 55.4301H36.5087L33.5996 50.2001L30.5223 55.3301L29.9187 55.3201Z" fill="#303030"/>
<path d="M26.4753 48.0001C26.9278 48.4359 27.2516 48.9902 27.4106 49.6012C27.5696 50.2121 27.5575 50.8557 27.3757 51.4601C27.2132 52.079 26.8884 52.6421 26.4357 53.0901C25.9958 53.5271 25.4442 53.8318 24.8426 53.9701C24.2081 54.1148 23.5475 54.0941 22.923 53.9101C22.3006 53.7565 21.728 53.443 21.2607 53.0001C20.815 52.5698 20.4964 52.0228 20.3405 51.4201C20.1883 50.7971 20.1995 50.1447 20.3731 49.5274C20.5466 48.9101 20.8764 48.3492 21.33 47.9001C21.7621 47.4642 22.302 47.1534 22.8934 47.0001C23.5246 46.8558 24.1819 46.8765 24.8031 47.0601C25.4319 47.2212 26.0082 47.5452 26.4753 48.0001ZM23.1011 47.6501C22.6171 47.764 22.1747 48.0135 21.8247 48.3701C21.4602 48.737 21.2004 49.1965 21.0727 49.7001C20.9347 50.2006 20.9347 50.7296 21.0727 51.2301C21.1894 51.717 21.4398 52.1607 21.795 52.5101C22.1676 52.8783 22.6276 53.1435 23.1308 53.2801C23.634 53.4096 24.1613 53.4096 24.6645 53.2801C25.149 53.1597 25.5929 52.9112 25.9509 52.5601C26.3134 52.1917 26.5729 51.7328 26.7029 51.2301C26.8412 50.7263 26.8412 50.1939 26.7029 49.6901C26.5763 49.205 26.3234 48.7631 25.9707 48.4101C25.5962 48.0414 25.1319 47.7792 24.625 47.6501C24.1264 47.5108 23.5997 47.5108 23.1011 47.6501Z" fill="#303030"/>
<path d="M15.6107 43L15.8778 45.75C16.0475 45.8233 16.2127 45.9068 16.3726 46L17.9854 46.94L19.0739 45L19.717 45.37L16.2538 51.4L13.9978 50.09C13.331 49.7515 12.8049 49.1844 12.5136 48.49C12.406 48.1772 12.3697 47.8439 12.4074 47.5149C12.4451 47.1859 12.5558 46.8698 12.7312 46.59C12.9612 46.1518 13.3258 45.8008 13.7702 45.59C14.2215 45.4011 14.7206 45.3626 15.1951 45.48L14.9081 42.54L15.6107 43ZM14.4826 46.16C14.2502 46.219 14.032 46.3247 13.841 46.4708C13.6499 46.617 13.49 46.8006 13.3709 47.0107C13.2517 47.2207 13.1757 47.4529 13.1474 47.6934C13.1191 47.9338 13.1391 48.1776 13.2062 48.41C13.4381 48.9276 13.8402 49.3481 14.3441 49.6L15.9372 50.53L17.6688 47.53L16.0757 46.6C15.6178 46.2533 15.054 46.0799 14.4826 46.11V46.16Z" fill="#303030"/>
<path d="M9.75289 38.3101L10.1982 37.8601L13.6119 41.4101L8.66445 46.2901L5.36945 42.8501L5.82461 42.4001L8.62487 45.3101L10.3169 43.5801L7.86296 41.0001L8.33792 40.5401L10.8413 43.1401L12.6818 41.3301L9.75289 38.3101Z" fill="#303030"/>
<path d="M2.40096 34.38L2.63844 33L3.1035 33.07L2.83634 34.49L4.15236 34L4.31068 34.44L2.97487 34.9L4.0732 35.84L3.75657 36.2L2.69781 35.2L2.45044 36.62L1.97548 36.53L2.25254 35.11L0.926622 35.59L0.778198 35.2L2.10412 34.73L1.00578 33.8L1.33231 33.44L2.40096 34.38Z" fill="#303030"/>
</g>
<defs>
<clipPath id="clip0_0_8">
<rect width="68.2056" height="55.46" fill="white" transform="translate(0.421997)"/>
</clipPath>
</defs>
</svg>
